# xmcd
#
# Track frame offsets: 
#        150
#        18267
#        33817
#        70775
#        87362
#        112182
#        139050
#        162145
#        201847
#        219227
#        235152
#        265057
#
# Disc length: 3855 seconds
#
# Revision: 0
# Processed by: cddbd v1.5.2PL0 Copyright (c) Steve Scherf et al.
# Submitted via: ExactAudioCopy v0.99pb5
#
DISCID=9c0f0d0c
DTITLE=Hot Cottage - Better Late Than Never
DYEAR=2000
DGENRE=Blues
TTITLE0=Messin' In The Devils Oven
TTITLE1=Depression Blues
TTITLE2=Tell Me If My Eyes Deceive Me
TTITLE3=S.O.S
TTITLE4=Hound Dog
TTITLE5=Vegatarian Blues
TTITLE6=Her Mind Is Gone
TTITLE7=Cancer Blues
TTITLE8=Pickin' Peaches
TTITLE9=Woofin' It
TTITLE10=As The Years Go Passing By
TTITLE11=Runnin' Blues
EXTD=
EXTT0=
EXTT1=
EXTT2=
EXTT3=
EXTT4=
EXTT5=
EXTT6=
EXTT7=
EXTT8=
EXTT9=
EXTT10=
EXTT11=
PLAYORDER=
